<?xml version="1.0" encoding="utf-8"?>
<!-- Generator: Adobe Illustrator 16.2.1, SVG Export Plug-In . SVG Version: 6.00 Build 0)  -->
<!DOCTYPE svg PUBLIC "-//W3C//DTD SVG 1.1//EN" "http://www.w3.org/Graphics/SVG/1.1/DTD/svg11.dtd">
<svg version="1.1" id="Ebene_1" xmlns="http://www.w3.org/2000/svg" xmlns:xlink="http://www.w3.org/1999/xlink" x="0px" y="0px"
	 width="64px" height="64px" viewBox="0 0 64 64" enable-background="new 0 0 64 64" xml:space="preserve">
<g>
	<path fill="#E2001A" d="M0,32C0,14.325,14.326,0,32,0c17.675,0,32,14.325,32,32c0,17.674-14.326,32-32,32C14.326,64,0,49.673,0,32
		L0,32z"/>
	<path fill="#FFFFFF" d="M20.123,51.882h23.17v-5.821H27.771l13.068-16.379c1.713-2.112,2.454-4.452,2.454-7.133
		c0-6.45-5.079-11.643-11.871-11.643c-6.107,0-11.243,5.08-11.3,11.699h5.821c0.285-3.651,2.797-5.878,5.935-5.878
		c3.483,0,5.593,2.91,5.593,5.764c0,1.198-0.229,2.454-1.483,4.052l-15.866,19.86L20.123,51.882L20.123,51.882z"/>
</g>
</svg>
